<svg width="53" height="53" viewBox="0 0 53 53" fill="none" xmlns="http://www.w3.org/2000/svg">
<path d="M0 26.5C0 11.8645 11.8645 0 26.5 0C41.1355 0 53 11.8645 53 26.5C53 41.1355 41.1355 53 26.5 53C11.8645 53 0 41.1355 0 26.5Z" fill="#F2F2F2"/>
<path d="M6.76001 35.39C6.80542 36.0422 7.08768 36.6553 7.55365 37.1139C8.01962 37.5725 8.63716 37.8449 9.29001 37.88H43.9C45.7 37.88 46.12 36.08 46.22 35.39H6.76001ZM31.18 36.88H21.88C21.8137 36.88 21.7501 36.8536 21.7032 36.8067C21.6564 36.7598 21.63 36.6963 21.63 36.63C21.63 36.5637 21.6564 36.5001 21.7032 36.4532C21.7501 36.4063 21.8137 36.38 21.88 36.38H31.18C31.2463 36.38 31.3099 36.4063 31.3568 36.4532C31.4037 36.5001 31.43 36.5637 31.43 36.63C31.43 36.6963 31.4037 36.7598 31.3568 36.8067C31.3099 36.8536 31.2463 36.88 31.18 36.88Z" fill="url(#paint0_linear)"/>
<path d="M42.31 16.0699C42.31 16.0699 42.31 16.0099 42.31 15.9899C42.2798 15.8373 42.2293 15.6893 42.16 15.5499V15.4799C42.0948 15.3647 42.0213 15.2544 41.94 15.1499C41.8607 15.0653 41.7736 14.9883 41.68 14.9199C41.5875 14.8621 41.4906 14.812 41.39 14.7699H41.34C41.2334 14.7083 41.119 14.6612 41 14.6299H40.95H40.72H12.62C12.364 14.631 12.1091 14.6612 11.86 14.7199C11.4483 14.8491 11.0972 15.1226 10.8712 15.4901C10.6452 15.8576 10.5596 16.2943 10.63 16.7199V34.8899H42.37V16.6699C42.3669 16.4686 42.3468 16.2679 42.31 16.0699ZM39.84 32.2799C39.84 32.5452 39.7346 32.7995 39.5471 32.987C39.3595 33.1746 39.1052 33.2799 38.84 33.2799H14.22C13.9547 33.2799 13.7004 33.1746 13.5129 32.987C13.3253 32.7995 13.22 32.5452 13.22 32.2799V17.5499C13.22 17.2847 13.3253 17.0304 13.5129 16.8428C13.7004 16.6553 13.9547 16.5499 14.22 16.5499H38.84C39.1052 16.5499 39.3595 16.6553 39.5471 16.8428C39.7346 17.0304 39.84 17.2847 39.84 17.5499V32.2799Z" fill="url(#paint1_linear)"/>
<path d="M38.84 17.05H34.56V25.86C34.56 25.9263 34.5336 25.9899 34.4867 26.0368C34.4399 26.0836 34.3763 26.11 34.31 26.11C34.2437 26.11 34.1801 26.0836 34.1332 26.0368C34.0863 25.9899 34.06 25.9263 34.06 25.86V17.05H29V26.27C29 26.3363 28.9736 26.3999 28.9267 26.4468C28.8799 26.4936 28.8163 26.52 28.75 26.52C28.6837 26.52 28.6201 26.4936 28.5732 26.4468C28.5263 26.3999 28.5 26.3363 28.5 26.27V17.05H24.78V30.43C24.78 30.4963 24.7536 30.5599 24.7067 30.6068C24.6599 30.6537 24.5963 30.68 24.53 30.68C24.4637 30.68 24.4001 30.6537 24.3532 30.6068C24.3063 30.5599 24.28 30.4963 24.28 30.43V17.05H19V31.93C19 31.9963 18.9736 32.0599 18.9267 32.1068C18.8799 32.1537 18.8163 32.18 18.75 32.18C18.6837 32.18 18.6201 32.1537 18.5732 32.1068C18.5263 32.0599 18.5 31.9963 18.5 31.93V17.05H15.36V29.48C15.36 29.5463 15.3336 29.6099 15.2867 29.6568C15.2399 29.7036 15.1763 29.73 15.11 29.73C15.0437 29.73 14.9801 29.7036 14.9332 29.6568C14.8863 29.6099 14.86 29.5463 14.86 29.48V17.05H14.22C14.0874 17.05 13.9602 17.1027 13.8664 17.1964C13.7726 17.2902 13.72 17.4174 13.72 17.55V32.28C13.72 32.4126 13.7726 32.5398 13.8664 32.6335C13.9602 32.7273 14.0874 32.78 14.22 32.78H16.61V27.45C16.61 27.3837 16.6363 27.3201 16.6832 27.2732C16.7301 27.2263 16.7937 27.2 16.86 27.2C16.9263 27.2 16.9899 27.2263 17.0367 27.2732C17.0836 27.3201 17.11 27.3837 17.11 27.45V32.78H26.64V18.78C26.64 18.7137 26.6663 18.6501 26.7132 18.6032C26.7601 18.5563 26.8237 18.53 26.89 18.53C26.9563 18.53 27.0199 18.5563 27.0667 18.6032C27.1136 18.6501 27.14 18.7137 27.14 18.78V32.78H32.26V20.4C32.26 20.3337 32.2863 20.2701 32.3332 20.2232C32.3801 20.1763 32.4437 20.15 32.51 20.15C32.5763 20.15 32.6399 20.1763 32.6867 20.2232C32.7336 20.2701 32.76 20.3337 32.76 20.4V32.78H37.52V20.4C37.52 20.3337 37.5463 20.2701 37.5932 20.2232C37.6401 20.1763 37.7037 20.15 37.77 20.15C37.8327 20.155 37.8913 20.1836 37.934 20.2299C37.9766 20.2763 38.0002 20.337 38 20.4V32.78H38.82C38.9526 32.78 39.0798 32.7273 39.1735 32.6335C39.2673 32.5398 39.32 32.4126 39.32 32.28V17.55C39.3201 17.4208 39.2701 17.2965 39.1807 17.2033C39.0912 17.1101 38.9691 17.0552 38.84 17.05ZM20.84 30.93C20.84 30.9963 20.8136 31.0599 20.7667 31.1068C20.7199 31.1537 20.6563 31.18 20.59 31.18C20.5237 31.18 20.4601 31.1537 20.4132 31.1068C20.3663 31.0599 20.34 30.9963 20.34 30.93V22.09C20.34 22.0237 20.3663 21.9601 20.4132 21.9132C20.4601 21.8663 20.5237 21.84 20.59 21.84C20.6563 21.84 20.7199 21.8663 20.7667 21.9132C20.8136 21.9601 20.84 22.0237 20.84 22.09V30.93ZM22.84 22.73C22.84 22.7963 22.8136 22.8599 22.7667 22.9068C22.7199 22.9536 22.6563 22.98 22.59 22.98C22.5237 22.98 22.4601 22.9536 22.4132 22.9068C22.3663 22.8599 22.34 22.7963 22.34 22.73V18.6C22.34 18.5337 22.3663 18.4701 22.4132 18.4232C22.4601 18.3763 22.5237 18.35 22.59 18.35C22.6563 18.35 22.7199 18.3763 22.7667 18.4232C22.8136 18.4701 22.84 18.5337 22.84 18.6V22.73ZM30.84 30.93C30.84 30.9963 30.8136 31.0599 30.7667 31.1068C30.7199 31.1537 30.6563 31.18 30.59 31.18C30.5237 31.18 30.4601 31.1537 30.4132 31.1068C30.3663 31.0599 30.34 30.9963 30.34 30.93V18.26C30.34 18.1937 30.3663 18.1301 30.4132 18.0832C30.4601 18.0363 30.5237 18.01 30.59 18.01C30.6563 18.01 30.7199 18.0363 30.7667 18.0832C30.8136 18.1301 30.84 18.1937 30.84 18.26V30.93ZM36.19 30.93C36.19 30.9963 36.1636 31.0599 36.1167 31.1068C36.0699 31.1537 36.0063 31.18 35.94 31.18C35.8737 31.18 35.8101 31.1537 35.7632 31.1068C35.7163 31.0599 35.69 30.9963 35.69 30.93V24.41C35.69 24.3437 35.7163 24.2801 35.7632 24.2332C35.8101 24.1863 35.8737 24.16 35.94 24.16C36.0063 24.16 36.0699 24.1863 36.1167 24.2332C36.1636 24.2801 36.19 24.3437 36.19 24.41V30.93Z" fill="url(#paint2_linear)"/>
<path d="M11.8601 14.66C12.1092 14.6012 12.3642 14.5711 12.6201 14.57C12.3642 14.5711 12.1092 14.6012 11.8601 14.66Z" fill="url(#paint3_linear)"/>
<defs>
<linearGradient id="paint0_linear" x1="26.49" y1="35.39" x2="26.49" y2="37.88" gradientUnits="userSpaceOnUse">
<stop stop-color="#89C7C3"/>
<stop offset="1" stop-color="#4F9793"/>
</linearGradient>
<linearGradient id="paint1_linear" x1="26.488" y1="14.6299" x2="26.488" y2="34.8899" gradientUnits="userSpaceOnUse">
<stop stop-color="#89C7C3"/>
<stop offset="1" stop-color="#4F9793"/>
</linearGradient>
<linearGradient id="paint2_linear" x1="26.52" y1="17.05" x2="26.52" y2="32.78" gradientUnits="userSpaceOnUse">
<stop stop-color="#89C7C3"/>
<stop offset="1" stop-color="#4F9793"/>
</linearGradient>
<linearGradient id="paint3_linear" x1="12.2401" y1="14.57" x2="12.2401" y2="14.66" gradientUnits="userSpaceOnUse">
<stop stop-color="#89C7C3"/>
<stop offset="1" stop-color="#4F9793"/>
</linearGradient>
</defs>
</svg>
