<svg xmlns="http://www.w3.org/2000/svg" width="16" height="11.65" viewBox="0 0 16 11.65"><title>Untitled-1</title><path d="M16,15v.2H9.18V10.59H6.85v4.58H0V15c0-.05,0-.09,0-.14a11.91,11.91,0,0,1,.16-1.58A8.08,8.08,0,0,1,2,9.45,7.82,7.82,0,0,1,5.38,7.14a8,8,0,0,1,2-.43l.49,0V6.55c0-.55,0-1.11,0-1.66a3.25,3.25,0,0,1,0-.44A.1.1,0,0,1,8,4.37c.1-.06.21,0,.23.15v.17h.14l.87-.07a1.49,1.49,0,0,1,.59.13.1.1,0,0,1,.07.1c0,.45,0,.9,0,1.35v.07l-.16-.11A.69.69,0,0,0,9.13,6l-.43.07-.51,0v.57h0c.34,0,.69.07,1,.12a7.67,7.67,0,0,1,2.38.79A8.14,8.14,0,0,1,16,14.48C16,14.65,16,14.81,16,15ZM6.14,12.5V10.59H4.24V12.5ZM9.9,10.59v1.89h1.89V10.59Z" transform="translate(-0.02 -4.35)"/><path d="M0,16v-.66H16V16Z" transform="translate(-0.02 -4.35)"/></svg>
