<svg xmlns="http://www.w3.org/2000/svg" width="16" height="8.08" viewBox="0 0 16 8.08"><title>arcticjamming</title><path d="M4.08,7.94.49,9S.4,9,.36,9L0,9S0,9,0,9a1.17,1.17,0,0,1,.27-.2l2.18-.63,3.3-.95a.42.42,0,0,0,.12-.08,1.19,1.19,0,0,0-.08-.16C4.82,6,3.85,5.15,2.87,4.27a.86.86,0,0,0-.19-.11l-.19-.08C2.56,4,2.64,4,2.71,4a1,1,0,0,1,.52.16c.9.79,1.77,1.62,2.67,2.4a.74.74,0,0,0,.62.21c1.71-.39,3.42-.82,5.12-1.25.09,0,.17-.14.25-.15s.15.09.22.14-.13.17-.21.19c-.8.25-1.62.49-2.43.72l-2.65.76s-.05.08-.08.12.19.25.28.24a3,3,0,0,1,1.73.32,21.65,21.65,0,0,0,2.93,1.1c.32.11.71.34,1,.18A4.37,4.37,0,0,0,13.59,8c.26-.34.49-.7.74-1a.16.16,0,0,0,0-.11s-.05,0-.07,0l-.86.47s-.07,0-.07-.06a.17.17,0,0,1,0-.13,7.89,7.89,0,0,0,.87-.44c.13-.08.39-.15.2-.57a5.49,5.49,0,0,1-.27-1s0-.11.06-.11a.11.11,0,0,1,.11.06c.08.36.17.72.23,1.08s.24.32.43.21l.94-.52s.06,0,.09,0,0,.12,0,.12c-.59.05-.72.84-1,1.36,0,.1.09.43.14.66a.5.5,0,0,1,0,.19c-.05,0-.14,0-.15-.09-.07-.51-.2-.46-.37-.08l0,0c-.4.46-.45.87.05,1.29.07.07,0,.54,0,.82a1,1,0,0,1-.09.34c-.15,0-.36-.06-.42-.2-.15-.37-.33-.38-.58-.31s-.76.16-1.14.25c-.06,0-.11.1-.17.15l.26.22a2.2,2.2,0,0,0,.25.17l-.11.3a1.61,1.61,0,0,0-.22-.23c-.28-.17-.56-.49-.83-.48a5.41,5.41,0,0,0-2.19.33c-1.25.61-2.51.36-3.77.52,0,0,0,.07,0,.11a1.52,1.52,0,0,1,0,.58c-.07.13-.28.23-.38.16s-.15-.35-.24-.52a.4.4,0,0,0-.22-.19c-.27-.08-.54-.13-.81-.19a3.91,3.91,0,0,1-1.06-.31A1.18,1.18,0,0,1,2.27,10a2,2,0,0,1,.4-.87A2.55,2.55,0,0,1,4.08,7.94h0Zm1.78-.43v0l.34,0a.7.7,0,0,0-.27-.08,2.54,2.54,0,0,0-.37.1Z"/></svg>
