<svg xmlns="http://www.w3.org/2000/svg" width="16" height="8.8" viewBox="0 0 16 8.8"><title>arcticjamming</title><path d="M16,5.85s0,0,0,0l0,0s0-.08,0-.11a.25.25,0,0,0-.34-.09l-.91.52L14.34,5A.25.25,0,0,0,14,4.83a.26.26,0,0,0-.16.32l.41,1.21L13.21,7a.25.25,0,0,0-.09.34.26.26,0,0,0,.22.13.19.19,0,0,0,.12,0l.86-.5c-.24.36-.48.71-.73,1a4.37,4.37,0,0,1-.94,1.14c-.26.16-.65-.07-1-.18a21.65,21.65,0,0,1-2.93-1.1A2.91,2.91,0,0,0,7.2,7.5l-.31-.28,5.46-1.59a.38.38,0,1,0-.21-.72L6.25,6.63,2.64,3.34a.38.38,0,0,0-.53,0,.37.37,0,0,0,0,.53l3.26,3L.27,8.37A.38.38,0,0,0,0,8.84s0,0,0,.06L0,9S0,9,0,9H.15a.32.32,0,0,0,.23.09l.1,0L3.56,8.2a2.65,2.65,0,0,0-.89,1,2,2,0,0,0-.4.87,1.18,1.18,0,0,0,.47.79,3.91,3.91,0,0,0,1.06.31c.27.06.54.11.81.19a.4.4,0,0,1,.22.19c.09.17.13.45.24.52s.31,0,.38-.16a1.52,1.52,0,0,0,0-.58s0-.11,0-.11c1.26-.16,2.52.09,3.77-.52a5.41,5.41,0,0,1,2.19-.33c.27,0,.55.31.83.48a1.61,1.61,0,0,1,.22.23l.11-.3a2.2,2.2,0,0,1-.25-.17l-.26-.22c.06-.05.11-.14.17-.15.38-.09.76-.14,1.14-.25s.43-.06.58.31c.06.14.27.16.42.2a1,1,0,0,0,.09-.34c0-.28.1-.75,0-.82-.5-.42-.45-.83-.05-1.29l0,0c.08-.17.14-.26.2-.28l.11.32a.25.25,0,0,0,.23.17h.08a.26.26,0,0,0,.16-.32l-.26-.76a5.68,5.68,0,0,1,.4-.82L15.88,6s0-.06.06-.09h0l0,0S16,5.86,16,5.85ZM5.86,7.52l.19,0,0,0-.23,0Z"/></svg>
