<svg xmlns="http://www.w3.org/2000/svg" width="16" height="12.94" viewBox="0 0 16 12.94"><title>arcticjamming</title><path d="M4.27,4.22c0-.75,0-1.5,0-2.25,0,0,0-.07,0-.07a1.07,1.07,0,0,0-.31,0c-.14,0-.2,0-.16-.23s.07-.14.1-.14H6.48a1.23,1.23,0,0,1,.37.08s.06.07.09.1-.06.1-.09.1c-.31,0-.62.06-.94.09H5.85l0,.06,2.35,3.8s.07.07.1.06A3.27,3.27,0,0,1,10,6.3a7,7,0,0,0,2.2.43,8.94,8.94,0,0,1,3.58,1A1.48,1.48,0,0,1,16,8c-.08.09-.15.21-.25.26A7.84,7.84,0,0,1,13,9.15a20.41,20.41,0,0,0-2.35.31,14.48,14.48,0,0,0-1.83.68.83.83,0,0,1-.35,0c-.17,0-.27.06-.38.24C7.38,11.61,6.63,12.82,5.88,14l0,.06H5.9l.9.06s.09.08.14.13-.09.1-.14.12a1.59,1.59,0,0,1-.37.06H3.8s-.06-.08-.06-.11,0-.25.06-.25c.46,0,.47,0,.47-.65,0-1.31,0-2.63,0-3.94,0,0,0-.08,0-.08H3a.12.12,0,0,0-.08.05l-1.53,2.4a.11.11,0,0,1-.1.06c-.14,0-.28,0-.42,0a.48.48,0,0,1-.55-.31.33.33,0,0,1,0-.14c0-.63,0-1.26,0-1.89,0-.16,0-.2.15-.2s.12-.1.12-.15,0-.21.16-.2h.86s0,0,.05,0l0,0L.05,8.73a.12.12,0,0,1,0-.07c0-.41,0-.82,0-1.23,0-.06.06-.16.11-.17L1.56,7s0,0,0,0l0,0H.65s-.11-.1-.11-.15,0-.22-.16-.21a.2.2,0,0,1-.11-.15c0-.64,0-1.29,0-1.94,0-.15.2-.29.31-.43h0c.7-.24,1,.39,1.39,1s.62,1,.94,1.47a.06.06,0,0,0,.06,0H4.22s0,0,0-.07C4.27,5.73,4.27,5,4.27,4.22Z"/></svg>
