<svg xmlns="http://www.w3.org/2000/svg" width="15.99" height="14.56" viewBox="0 0 15.99 14.56"><title>arcticjamming</title><path d="M16,10.68s0,0,0,0v.12a3.57,3.57,0,0,1-.14,1,4,4,0,0,1-.27.71c-.13.28-.27,1.55-.35,1.86a3.23,3.23,0,0,0-.18.83.85.85,0,0,0,0,.32H5.72c-.24-.24-.46-.5-.7-.73s-1.55-.5-1.82-.76-.34-1.29-.5-1.46S1.27,12.2,1.07,12,.71,11.6.54,11.4a3.63,3.63,0,0,1-.41-.59c0-.08,0-.17-.09-.25H10.37V8.68L11,7.79V6.86h1.34V5.93H11V5.05h1l0,0V1h.31V5h1V2.35h.31V5c.23,0,.45,0,.67,0H15V7.78c.26.6.52,2.18.79,2.78H16ZM13.37,5.93h-.68v.92h.68Zm1,0h-.68c0,.31,0,.61,0,.91h.68Z"  fill="#000"/></svg>
