<svg xmlns="http://www.w3.org/2000/svg" width="30.98" height="23.74" viewBox="0 0 30.98 23.74"><title>Untitled-1</title><path d="M16,12.69s0,0,0,0v.1a2,2,0,0,1-.14.72,2.65,2.65,0,0,1-.27.53,3.25,3.25,0,0,0-.35.63,1.92,1.92,0,0,0-.18.62c-.05.07,0,.16,0,.24H3.72c-.24-.18-.46-.37-.7-.54l-.82-.56c-.16-.11-.34-.22-.5-.34s-.43-.3-.63-.47l-.53-.43a2.85,2.85,0,0,1-.41-.44c0-.06,0-.12-.09-.18H10.37v-.66l.66-.66V10.6h1.34V9.91H11V9.26h1l0,0h0v-3h.31v3h1v-2h.31v2c.23,0,.45,0,.67,0H15v2l.79,1.31H16ZM13.37,9.91h-.68v.68h.68Zm1,0h-.68c0,.23,0,.46,0,.68h.68Z" transform="translate(-0.04 -6.26)"/><path d="M31,29v.2H24.18V24.59H21.85v4.58H15V29s0-.09,0-.14a11.91,11.91,0,0,1,.16-1.58A8.08,8.08,0,0,1,17,23.45a7.82,7.82,0,0,1,3.36-2.31,8,8,0,0,1,2-.43l.49-.05v-.11c0-.55,0-1.11,0-1.66a3.25,3.25,0,0,1,0-.44.1.1,0,0,1,.06-.08c.1-.06.21,0,.23.15v.17h.14l.87-.07a1.49,1.49,0,0,1,.59.13.1.1,0,0,1,.07.1c0,.45,0,.9,0,1.35v.07l-.16-.11a.69.69,0,0,0-.55-.16l-.43.07-.51,0v.57h0c.34,0,.69.07,1,.12a7.67,7.67,0,0,1,2.38.79A8.14,8.14,0,0,1,31,28.48C31,28.65,31,28.81,31,29ZM21.14,26.5V24.59h-1.9V26.5Zm3.76-1.91v1.89h1.89V24.59Z" transform="translate(-0.04 -6.26)"/><path d="M31,29c0-.16,0-.32,0-.49a8.14,8.14,0,0,0-4.34-6.91,7.67,7.67,0,0,0-2.38-.79c-.34-.05-.69-.08-1-.12h0v-.57l.51,0,.43-.07a.69.69,0,0,1,.55.16l.16.11v-.07c0-.45,0-.9,0-1.35a.1.1,0,0,0-.07-.1,1.49,1.49,0,0,0-.59-.13l-.87.07h-.14v-.17c0-.14-.13-.21-.23-.15a.1.1,0,0,0-.06.08,3.25,3.25,0,0,0,0,.44c0,.55,0,1.11,0,1.66v.11l-.49.05a8,8,0,0,0-2,.43A7.82,7.82,0,0,0,17,23.45a8.08,8.08,0,0,0-1.83,3.8A11.91,11.91,0,0,0,15,28.83c0,.05,0,.09,0,.14V18.33H31Z" transform="translate(-0.04 -6.26)" fill="#fff"/><path d="M15,29.17h6.83V24.59h2.33v4.58H31V30s0,0,0,.05v-.66H15V30s0,0,0-.05Z" transform="translate(-0.04 -6.26)" fill="#fff"/><path d="M15,30v-.66H31V30Z" transform="translate(-0.04 -6.26)"/><path d="M21.14,26.5h-1.9V24.59h1.9Z" transform="translate(-0.04 -6.26)" fill="#fff"/><path d="M24.9,24.59h1.89v1.89H24.9Z" transform="translate(-0.04 -6.26)" fill="#fff"/></svg>
