<svg xmlns="http://www.w3.org/2000/svg" width="15.99" height="9.31" viewBox="0 0 15.99 9.31"><title>Untitled-1</title><path d="M16,12.69s0,0,0,0v.1a2,2,0,0,1-.14.72,2.65,2.65,0,0,1-.27.53,3.25,3.25,0,0,0-.35.63,1.92,1.92,0,0,0-.18.62c-.05.07,0,.16,0,.24H3.72c-.24-.18-.46-.37-.7-.54l-.82-.56c-.16-.11-.34-.22-.5-.34s-.43-.3-.63-.47l-.53-.43a2.85,2.85,0,0,1-.41-.44c0-.06,0-.12-.09-.18H10.37v-.66l.66-.66V10.6h1.34V9.91H11V9.26h1l0,0h0v-3h.31v3h1v-2h.31v2c.23,0,.45,0,.67,0H15v2l.79,1.31H16ZM13.37,9.91h-.68v.68h.68Zm1,0h-.68c0,.23,0,.46,0,.68h.68Z" transform="translate(-0.04 -6.26)"/></svg>
