<svg width="34" height="34" viewBox="0 0 34 34" fill="none" xmlns="http://www.w3.org/2000/svg">
<circle cx="16.957" cy="16.957" r="16.957" fill="url(#paint0_linear)"/>
<path fill-rule="evenodd" clip-rule="evenodd" d="M15.3977 9.48326C12.2772 9.48326 9.7476 12.0129 9.7476 15.1333C9.7476 18.2538 12.2772 20.7834 15.3977 20.7834C18.5181 20.7834 21.0477 18.2538 21.0477 15.1333C21.0477 12.0129 18.5181 9.48326 15.3977 9.48326ZM8.1333 15.1333C8.1333 11.1213 11.3857 7.86896 15.3977 7.86896C19.4097 7.86896 22.662 11.1213 22.662 15.1333C22.662 16.752 22.1326 18.2471 21.2374 19.4548C21.4269 19.5483 21.5954 19.6633 21.7186 19.7865L25.964 24.0319C26.4245 24.4924 26.4246 25.2391 25.964 25.6997C25.5035 26.1602 24.7568 26.1602 24.2963 25.6997L20.0509 21.4543C19.9276 21.331 19.8126 21.1626 19.7191 20.9731C18.5114 21.8682 17.0164 22.3977 15.3977 22.3977C11.3857 22.3977 8.1333 19.1453 8.1333 15.1333ZM16.1822 18.5558H14.7676V13.0693H16.1822V18.5558ZM16.3248 11.3855C16.3248 11.8315 15.9801 12.1326 15.4808 12.1326C14.9816 12.1326 14.6368 11.8315 14.6368 11.3855C14.6368 10.9394 14.9816 10.6383 15.4808 10.6383C15.9801 10.6383 16.3248 10.9394 16.3248 11.3855Z" fill="white"/>
<defs>
<linearGradient id="paint0_linear" x1="16.957" y1="0" x2="16.957" y2="33.9141" gradientUnits="userSpaceOnUse">
<stop stop-color="#89C7C3"/>
<stop offset="1" stop-color="#4F9793"/>
</linearGradient>
</defs>
</svg>
