<svg width="53" height="53" viewBox="0 0 53 53" fill="none" xmlns="http://www.w3.org/2000/svg">
<path d="M0 26.5C0 11.8645 11.8645 0 26.5 0C41.1355 0 53 11.8645 53 26.5C53 41.1355 41.1355 53 26.5 53C11.8645 53 0 41.1355 0 26.5Z" fill="#F2F2F2"/>
<path d="M38.3467 23.3867H38.2353C38.2015 23.3722 38.171 23.3511 38.1454 23.3247C38.1199 23.2983 38.0998 23.2672 38.0863 23.233C38.0729 23.1988 38.0663 23.1623 38.067 23.1256C38.0677 23.0888 38.0756 23.0526 38.0904 23.0189C38.1826 22.8179 38.2303 22.5993 38.2303 22.3781C38.2303 22.1569 38.1826 21.9383 38.0904 21.7372C37.9877 21.5604 37.8495 21.4068 37.6846 21.2859C37.5196 21.1651 37.3315 21.0797 37.1319 21.0351C37.096 21.0278 37.062 21.0135 37.0316 20.993C37.0013 20.9725 36.9753 20.9462 36.9551 20.9157C36.935 20.8852 36.921 20.851 36.914 20.815C36.9071 20.7791 36.9072 20.7422 36.9146 20.7063C36.9219 20.6704 36.9362 20.6364 36.9567 20.606C36.9772 20.5757 37.0034 20.5497 37.0339 20.5295C37.0645 20.5094 37.0987 20.4954 37.1346 20.4884C37.1705 20.4815 37.2075 20.4816 37.2434 20.489C37.5073 20.555 37.7551 20.674 37.9716 20.8388C38.1881 21.0035 38.3688 21.2106 38.5028 21.4475C38.6476 21.7182 38.7298 22.0179 38.7433 22.3246C38.7568 22.6313 38.7013 22.9372 38.5808 23.2196C38.5597 23.2654 38.527 23.3049 38.486 23.3342C38.4449 23.3636 38.3969 23.3817 38.3467 23.3867Z" fill="url(#paint0_linear)"/>
<path d="M39.5056 24.1223H39.3942C39.3297 24.0889 39.2795 24.0332 39.2529 23.9656C39.2262 23.898 39.2249 23.823 39.2493 23.7546C39.4477 23.2957 39.5407 22.7982 39.5214 22.2986C39.5021 21.799 39.371 21.3101 39.1378 20.8679C38.9072 20.4672 38.596 20.1187 38.2238 19.8444C37.8517 19.5701 37.4266 19.3759 36.9756 19.2742C36.9398 19.2661 36.9059 19.2511 36.8758 19.2299C36.8458 19.2088 36.8202 19.1819 36.8005 19.1508C36.7608 19.0881 36.7476 19.0122 36.7639 18.9398C36.7801 18.8674 36.8245 18.8044 36.8872 18.7647C36.9499 18.725 37.0258 18.7118 37.0982 18.728C37.6243 18.85 38.1196 19.0792 38.553 19.4014C38.9865 19.7236 39.3487 20.1318 39.6171 20.6005C39.8883 21.1122 40.0411 21.6783 40.0643 22.257C40.0874 22.8357 39.9803 23.4123 39.7508 23.944C39.7315 23.9942 39.6981 24.0378 39.6546 24.0695C39.6111 24.1011 39.5593 24.1195 39.5056 24.1223Z" fill="url(#paint1_linear)"/>
<path d="M40.9211 25.4263C40.8808 25.4363 40.8388 25.4363 40.7985 25.4263C40.7324 25.3949 40.6812 25.3387 40.6562 25.2699C40.6312 25.2011 40.6342 25.1251 40.6648 25.0586C41.0048 24.2676 41.1633 23.4106 41.1286 22.5504C41.0938 21.6902 40.8668 20.8487 40.4642 20.0878C40.0731 19.382 39.5391 18.7657 38.8962 18.2782C38.2532 17.7907 37.5156 17.4429 36.7305 17.2569C36.6603 17.2408 36.599 17.1982 36.5595 17.1379C36.52 17.0777 36.5054 17.0045 36.5187 16.9337C36.5348 16.8605 36.5787 16.7964 36.641 16.7548C36.7033 16.7133 36.7794 16.6975 36.8531 16.7108C37.714 16.9078 38.5239 17.2835 39.2304 17.8134C39.9369 18.3432 40.5243 19.0156 40.9545 19.7869C41.3965 20.6252 41.6449 21.552 41.6816 22.499C41.7182 23.446 41.5422 24.3892 41.1663 25.2592C41.1453 25.3073 41.1112 25.3485 41.0678 25.3781C41.0244 25.4077 40.9736 25.4244 40.9211 25.4263Z" fill="url(#paint2_linear)"/>
<path d="M42.5262 25.7273C42.4897 25.7378 42.4511 25.7378 42.4147 25.7273C42.3485 25.6957 42.2967 25.6402 42.2698 25.5719C42.2429 25.5037 42.2429 25.4277 42.2698 25.3595C42.6852 24.3779 42.8796 23.3169 42.8391 22.2518C42.7987 21.1866 42.5244 20.1434 42.0358 19.1962C41.5401 18.334 40.8713 17.5839 40.0714 16.9931C39.2715 16.4023 38.3579 15.9836 37.3882 15.7634C37.3159 15.7499 37.2519 15.7083 37.2101 15.6478C37.1684 15.5872 37.1523 15.5126 37.1653 15.4402C37.1838 15.3684 37.2281 15.3059 37.2898 15.2648C37.3515 15.2236 37.4262 15.2067 37.4997 15.2173C38.5489 15.4427 39.5385 15.888 40.403 16.5239C41.2675 17.1598 41.9874 17.9718 42.515 18.9064C43.059 19.9294 43.3656 21.0617 43.4119 22.2194C43.4582 23.3771 43.2431 24.5304 42.7825 25.5935C42.7571 25.638 42.7194 25.6743 42.674 25.698C42.6285 25.7217 42.5772 25.7319 42.5262 25.7273Z" fill="url(#paint3_linear)"/>
<path d="M44.4319 26.853C44.3957 26.8649 44.3566 26.8649 44.3205 26.853C44.2857 26.8397 44.2541 26.8194 44.2276 26.7932C44.2012 26.767 44.1805 26.7357 44.1668 26.701C44.1532 26.6664 44.1469 26.6294 44.1484 26.5922C44.1499 26.555 44.1592 26.5186 44.1756 26.4852C44.7181 25.1913 44.9703 23.7943 44.9145 22.3924C44.8586 20.9906 44.4961 19.618 43.8523 18.3714C43.2018 17.2319 42.324 16.2382 41.2733 15.4521C40.2226 14.666 39.0216 14.1043 37.7448 13.8019C37.7083 13.7966 37.6732 13.7839 37.6419 13.7645C37.6106 13.745 37.5836 13.7193 37.5627 13.689C37.5417 13.6586 37.5273 13.6243 37.5203 13.5881C37.5133 13.5519 37.5138 13.5146 37.5218 13.4787C37.5403 13.4068 37.5847 13.3444 37.6464 13.3032C37.7081 13.2621 37.7828 13.2452 37.8562 13.2558C39.211 13.5565 40.4879 14.1372 41.605 14.9606C42.7221 15.784 43.6546 16.8319 44.3427 18.0371C45.0441 19.3629 45.4392 20.8291 45.499 22.3278C45.5588 23.8265 45.2818 25.3195 44.6882 26.6969C44.6649 26.7447 44.6283 26.7848 44.5829 26.8124C44.5375 26.8401 44.4851 26.8541 44.4319 26.853Z" fill="url(#paint4_linear)"/>
<path d="M46.4046 27.1984H46.282C46.2158 27.167 46.1647 27.1108 46.1397 27.042C46.1146 26.9732 46.1177 26.8972 46.1482 26.8307C46.8089 25.264 47.1164 23.571 47.049 21.8721C46.9816 20.1732 46.5409 18.5099 45.7581 17.0005C44.9724 15.6332 43.9123 14.4432 42.6445 13.5053C41.3766 12.5674 39.9285 11.9018 38.3911 11.5505C38.3209 11.5345 38.2596 11.4919 38.2201 11.4316C38.1806 11.3713 38.166 11.2981 38.1794 11.2273C38.1929 11.155 38.2345 11.091 38.2951 11.0493C38.3556 11.0075 38.4302 10.9914 38.5026 11.0044C40.1318 11.3518 41.6692 12.0397 43.0137 13.0232C44.3583 14.0066 45.4797 15.2633 46.3043 16.7108C47.1399 18.2909 47.6107 20.0382 47.6821 21.8242C47.7535 23.6102 47.4236 25.3895 46.7166 27.0313C46.6877 27.0875 46.6423 27.1335 46.5866 27.1634C46.5309 27.1932 46.4674 27.2055 46.4046 27.1984Z" fill="url(#paint5_linear)"/>
<path d="M46.1928 31.9463L46.0368 30.4082L45.8362 30.1853C45.861 30.1651 45.8809 30.1396 45.8944 30.1107C45.9079 30.0817 45.9147 30.0501 45.9142 30.0181C45.8994 29.8383 45.838 29.6654 45.7359 29.5166C45.6838 29.4705 45.6159 29.4465 45.5464 29.4497V29.2714L45.3792 29.0819H44.744L44.3985 28.703L39.0822 28.5804L38.6364 28.3686C38.7812 28.1123 38.3131 27.934 38.3131 27.934L38.0345 27.5327L37.4884 26.0727C37.5111 25.6421 37.5111 25.2105 37.4884 24.7799C37.1959 23.3097 36.5235 21.9417 35.538 20.8122C35.2721 20.5067 34.9644 20.2403 34.6241 20.0208V19.9205H34.5238L34.3232 19.7979L33.7547 18.9621L34.3566 18.4828C34.3706 18.4713 34.3819 18.4568 34.3896 18.4405C34.3974 18.4241 34.4014 18.4062 34.4014 18.3881C34.4014 18.37 34.3974 18.3521 34.3896 18.3357C34.3819 18.3193 34.3706 18.3048 34.3566 18.2933C34.3566 18.2933 34.2006 18.2933 34.2006 18.2933L33.5764 18.7949C33.392 18.9316 33.217 19.0805 33.0526 19.2407C33.0526 19.3187 33.1975 19.497 33.1975 19.497H33.2644C32.5288 19.497 31.3251 19.8091 31.3362 21.8152C31.3334 22.8876 31.5539 23.9488 31.9838 24.9312C32.4136 25.9137 33.0433 26.7959 33.8328 27.5216C34.2053 27.8895 34.6718 28.1479 35.1813 28.2683V28.7141L34.3566 29.5055L34.2451 29.2157H34.0445V29.5166H33.9331L33.7659 29.4163L33.3089 29.7284H33.0303V29.4274H31.0799H30.935L30.2551 29.5055L29.9765 29.6615L29.7313 29.2603L28.8731 28.2572H28.3939V29.9847L27.9035 29.3048L27.7475 28.0566H27.6694L27.4465 27.8002V27.5996H27.3574V27.2875C27.345 27.259 27.3248 27.2345 27.2992 27.2168C27.2736 27.199 27.2436 27.1888 27.2125 27.1872C27.149 27.1885 27.0871 27.2078 27.0342 27.243V27.3433V27.0646H27.1345V26.7191H27.0342V26.251H27.1345V26.173H27.023V25.9613H26.867V26.173H26.789V26.2622H26.867V26.7637H26.789V27.5996L26.2986 27.9674H25.4404L25.1283 27.7668H24.7271V27.165H24.2144V28.5247H23.724V29.3494L23.5457 29.8732H23.4565V30.1073H23.2894L23.0107 29.9067V29.6838H23.189V29.3829H22.264V29.6838H22.6541V29.9067L22.4646 30.0627H21.9854L21.6621 29.7284V29.5612H21.7847V29.2491H20.8597V29.5612H21.2163V29.9067C21.0828 29.9178 20.9486 29.9178 20.8151 29.9067L20.3582 30.2522L18.3297 30.163V30.007H18.1068L17.8505 29.55V29.1265L17.4827 28.7476H17.3489L17.0034 28.8033L16.7694 28.4021H16.6022V28.2015H16.3682V28.4244L16.1452 28.5804L15.8666 28.4021L15.6994 27.9005V27.7334L14.3843 27.6108L14.0945 27.7334H13.8605H13.7379L12.2333 27.6665L12.0104 27.7891H10.8067L8.15411 27.9117V28.168L7.89776 28.4021L6.51575 31.0101H6.1814L5.62413 31.2775L5 35.0892L6.11452 35.535L8.59992 35.6465L11.1968 36.4155H12.4339V36.839H12.8685C12.8746 37.5134 13.13 38.1616 13.5855 38.6589C14.041 39.1562 14.6644 39.4674 15.3356 39.5324C16.0069 39.5974 16.6784 39.4118 17.221 39.0112C17.7635 38.6107 18.1386 38.0235 18.274 37.3629C18.291 37.1887 18.291 37.0132 18.274 36.839H19.199V36.9839H19.7006V38.7226H19.7897V39.2798H18.809V39.3356L18.9316 39.7479H21.0492V39.6922L20.7594 39.2687H20.1353V38.7226H20.2356V36.9839H20.8931V36.839H21.7847C21.762 37.1787 21.8092 37.5194 21.9235 37.84C22.0378 38.1606 22.2168 38.4543 22.4493 38.703C22.6818 38.9516 22.9629 39.1498 23.2751 39.2853C23.5874 39.4208 23.9242 39.4908 24.2646 39.4908C24.605 39.4908 24.9417 39.4208 25.254 39.2853C25.5663 39.1498 25.8474 38.9516 26.0799 38.703C26.3124 38.4543 26.4913 38.1606 26.6056 37.84C26.7199 37.5194 26.7672 37.1787 26.7444 36.839L27.5468 37.3071V36.605H29.3969C29.3969 36.605 29.3969 36.917 29.6756 36.917C29.9542 36.917 29.9542 36.5827 29.9542 36.5827H35.1145H35.5491C35.5491 36.6496 35.5491 36.7276 35.5491 36.8056C35.5491 37.3258 35.7558 37.8248 36.1237 38.1926C36.4915 38.5605 36.9905 38.7672 37.5107 38.7672C38.0309 38.7672 38.5299 38.5605 38.8977 38.1926C39.2656 37.8248 39.4723 37.3258 39.4723 36.8056C39.4783 36.7351 39.4783 36.6643 39.4723 36.5938H39.6506C39.6553 36.6532 39.6553 36.7128 39.6506 36.7722C39.6506 37.2924 39.8572 37.7913 40.2251 38.1592C40.593 38.5271 41.0919 38.7337 41.6121 38.7337C42.1324 38.7337 42.6313 38.5271 42.9992 38.1592C43.367 37.7913 43.5737 37.2924 43.5737 36.7722C43.5737 36.7722 43.5737 36.6607 43.5737 36.6161H44.3093V37.9647H44.3985V38.5442H43.3954V38.6L44.7105 38.8675H45.8251V38.8006L44.7105 38.5108V37.9535V36.5938H45.2344L45.134 35.1115H44.9223V34.8663H43.7297L43.5514 34.5765L42.827 33.9747L40.8989 33.8855H39.6171V33.5066H40.0072L40.297 33.3729L41.144 33.1945L42.4815 33.0608C42.4815 33.0608 42.5372 33.1945 42.6152 33.1945C42.6932 33.1945 42.7824 33.0496 42.7824 33.0496L45.6356 32.7487V32.3809H45.9142V32.1357H46.3043V31.9686L46.1928 31.9463ZM10.8401 30.7537C10.8394 30.8901 10.7878 31.0213 10.6952 31.1215C10.6226 31.1886 10.5266 31.2246 10.4277 31.2218L8.10952 31.0769C8.10952 31.0769 7.77517 31.0769 7.66371 30.8875C7.62908 30.8324 7.61071 30.7686 7.61071 30.7036C7.61071 30.6385 7.62908 30.5748 7.66371 30.5197C7.88662 30.1742 8.49961 29.0151 8.49961 29.0039C8.49961 28.9928 8.58877 28.7587 9.01229 28.7587C9.43581 28.7587 10.4946 28.8479 10.5392 28.859H10.6395C10.6947 28.8618 10.7487 28.8757 10.7985 28.8998C10.8482 28.9239 10.8926 28.9577 10.9289 28.9993C10.9653 29.0409 10.993 29.0894 11.0103 29.1419C11.0276 29.1943 11.0341 29.2498 11.0296 29.3048C10.9627 29.5835 10.8513 30.7091 10.8401 30.7537ZM27.2571 29.2268C27.2571 29.2919 27.2312 29.3542 27.1852 29.4002C27.1393 29.4462 27.0769 29.472 27.0119 29.472H25.7413C25.6763 29.472 25.6139 29.4462 25.5679 29.4002C25.5219 29.3542 25.4961 29.2919 25.4961 29.2268V28.5135C25.4961 28.4813 25.5025 28.4494 25.5148 28.4197C25.5271 28.3899 25.5452 28.3629 25.5679 28.3401C25.5907 28.3174 25.6177 28.2993 25.6475 28.287C25.6772 28.2747 25.7091 28.2683 25.7413 28.2683H27.0119C27.0441 28.2683 27.076 28.2747 27.1057 28.287C27.1354 28.2993 27.1625 28.3174 27.1852 28.3401C27.208 28.3629 27.2261 28.3899 27.2384 28.4197C27.2507 28.4494 27.2571 28.4813 27.2571 28.5135V29.2268ZM36.3404 28.4021V28.1346C36.5293 28.0401 36.6963 27.9073 36.8308 27.7445L37.1318 28.2683L36.3404 28.4021Z" fill="url(#paint6_linear)"/>
<defs>
<linearGradient id="paint0_linear" x1="37.8271" y1="20.4833" x2="37.8271" y2="23.3867" gradientUnits="userSpaceOnUse">
<stop stop-color="#5395C4"/>
<stop offset="1" stop-color="#356A90"/>
</linearGradient>
<linearGradient id="paint1_linear" x1="38.4122" y1="18.7213" x2="38.4122" y2="24.1223" gradientUnits="userSpaceOnUse">
<stop stop-color="#5395C4"/>
<stop offset="1" stop-color="#356A90"/>
</linearGradient>
<linearGradient id="paint2_linear" x1="39.1001" y1="16.7062" x2="39.1001" y2="25.4338" gradientUnits="userSpaceOnUse">
<stop stop-color="#5395C4"/>
<stop offset="1" stop-color="#356A90"/>
</linearGradient>
<linearGradient id="paint3_linear" x1="40.2895" y1="15.2142" x2="40.2895" y2="25.7352" gradientUnits="userSpaceOnUse">
<stop stop-color="#5395C4"/>
<stop offset="1" stop-color="#356A90"/>
</linearGradient>
<linearGradient id="paint4_linear" x1="41.5112" y1="13.2527" x2="41.5112" y2="26.8619" gradientUnits="userSpaceOnUse">
<stop stop-color="#5395C4"/>
<stop offset="1" stop-color="#356A90"/>
</linearGradient>
<linearGradient id="paint5_linear" x1="42.9331" y1="11" x2="42.9331" y2="27.2004" gradientUnits="userSpaceOnUse">
<stop stop-color="#5395C4"/>
<stop offset="1" stop-color="#356A90"/>
</linearGradient>
<linearGradient id="paint6_linear" x1="25.6521" y1="18.2933" x2="25.6521" y2="39.7479" gradientUnits="userSpaceOnUse">
<stop stop-color="#5395C4"/>
<stop offset="1" stop-color="#356A90"/>
</linearGradient>
</defs>
</svg>
