<svg width="17" height="15" viewBox="0 0 17 15" fill="none" xmlns="http://www.w3.org/2000/svg">
<path d="M15.98 11.5H5.47998V11C5.47998 10.725 5.25498 10.5 4.97998 10.5H3.97998C3.70498 10.5 3.47998 10.725 3.47998 11V11.5H0.97998C0.70498 11.5 0.47998 11.725 0.47998 12V13C0.47998 13.275 0.70498 13.5 0.97998 13.5H3.47998V14C3.47998 14.275 3.70498 14.5 3.97998 14.5H4.97998C5.25498 14.5 5.47998 14.275 5.47998 14V13.5H15.98C16.255 13.5 16.48 13.275 16.48 13V12C16.48 11.725 16.255 11.5 15.98 11.5ZM15.98 6.5H13.48V6C13.48 5.725 13.255 5.5 12.98 5.5H11.98C11.705 5.5 11.48 5.725 11.48 6V6.5H0.97998C0.70498 6.5 0.47998 6.725 0.47998 7V8C0.47998 8.275 0.70498 8.5 0.97998 8.5H11.48V9C11.48 9.275 11.705 9.5 11.98 9.5H12.98C13.255 9.5 13.48 9.275 13.48 9V8.5H15.98C16.255 8.5 16.48 8.275 16.48 8V7C16.48 6.725 16.255 6.5 15.98 6.5ZM15.98 1.5H9.47998V1C9.47998 0.725 9.25498 0.5 8.97998 0.5H7.97998C7.70498 0.5 7.47998 0.725 7.47998 1V1.5H0.97998C0.70498 1.5 0.47998 1.725 0.47998 2V3C0.47998 3.275 0.70498 3.5 0.97998 3.5H7.47998V4C7.47998 4.275 7.70498 4.5 7.97998 4.5H8.97998C9.25498 4.5 9.47998 4.275 9.47998 4V3.5H15.98C16.255 3.5 16.48 3.275 16.48 3V2C16.48 1.725 16.255 1.5 15.98 1.5Z" fill="black" fill-opacity="0.75"/>
</svg>
