<svg width="53" height="53" viewBox="0 0 53 53" fill="none" xmlns="http://www.w3.org/2000/svg">
<path d="M0 26.5C0 11.8645 11.8645 0 26.5 0C41.1355 0 53 11.8645 53 26.5C53 41.1355 41.1355 53 26.5 53C11.8645 53 0 41.1355 0 26.5Z" fill="#F2F2F2"/>
<path d="M45.8485 38.6147C45.8485 37.6579 44.7735 36.8302 43.29 36.3679C43.4472 35.8802 43.4902 35.3628 43.4156 34.8558C43.3411 34.3488 43.151 33.8658 42.86 33.4439C43.1477 33.0267 43.3014 32.5317 43.3007 32.0249C43.3007 30.2082 41.1507 28.7462 38.6137 28.7462C37.5475 28.7291 36.4965 29.0003 35.5715 29.5309C35.0317 29.4955 34.4908 29.5813 33.9886 29.7822C33.4863 29.9832 33.0354 30.294 32.669 30.6919C32.2045 30.8513 31.7935 31.1368 31.4821 31.5165C31.1708 31.8963 30.9713 32.3552 30.906 32.8419C30.9009 32.9207 30.9009 32.9997 30.906 33.0784C30.4158 33.3461 30.0036 33.7365 29.7096 34.2114C29.4156 34.6863 29.25 35.2293 29.229 35.7874C29.2338 36.3631 29.4096 36.9244 29.7343 37.3999C29.939 37.0611 30.2137 36.7698 30.5399 36.5454C30.8662 36.3211 31.2365 36.169 31.6263 36.0992C31.9986 35.3637 32.5746 34.7507 33.2855 34.3333C33.9964 33.9159 34.8123 33.7117 35.636 33.7449C36.6908 33.6675 37.7337 34.0089 38.5385 34.695C39.3434 35.3812 39.8455 36.3569 39.936 37.4107C39.9165 38.0436 39.7291 38.6599 39.3928 39.1964C39.0565 39.7329 38.5836 40.1703 38.0225 40.4637C37.9488 41.1298 37.6476 41.7502 37.1698 42.2201C36.692 42.6901 36.0668 42.981 35.3995 43.0437C36.4917 44.0325 37.9261 44.5569 39.3985 44.5057C42.0645 44.5057 44.2252 43.0222 44.2252 41.2054C44.2256 40.9797 44.193 40.7552 44.1285 40.5389C45.1497 40.0659 45.8485 39.3779 45.8485 38.6147Z" fill="url(#paint0_linear)"/>
<path d="M15.4258 40.4744C14.8616 40.1793 14.3867 39.7385 14.0502 39.1979C13.7137 38.6573 13.528 38.0365 13.5124 37.3999C13.6028 36.3462 14.1049 35.3705 14.9098 34.6843C15.7147 33.9981 16.7575 33.6568 17.8123 33.7342C18.6384 33.7029 19.4559 33.9103 20.167 34.3317C20.8782 34.753 21.4528 35.3704 21.8221 36.1099C22.2094 36.1786 22.5776 36.3292 22.9021 36.5517C23.2265 36.7742 23.4997 37.0634 23.7033 37.3999C24.0187 36.9407 24.1908 36.3982 24.1978 35.8412C24.1878 35.2828 24.0329 34.7367 23.7483 34.2561C23.4638 33.7756 23.0594 33.3772 22.5746 33.0999C22.5797 33.0212 22.5797 32.9422 22.5746 32.8634C22.507 32.3776 22.3066 31.9197 21.9956 31.5404C21.6845 31.1611 21.2748 30.8749 20.8116 30.7134C20.4438 30.3173 19.9926 30.0077 19.4907 29.807C18.9888 29.6062 18.4486 29.5193 17.9091 29.5524C16.9711 29.0284 15.9086 28.7683 14.8346 28.7999C12.2439 28.7999 10.1476 30.2404 10.1476 32.0249C10.148 32.5216 10.3019 33.006 10.5884 33.4117C10.1982 33.9656 9.98806 34.6262 9.98635 35.3037C9.98476 35.669 10.0429 36.0321 10.1584 36.3787C8.6211 36.8409 7.59985 37.6687 7.59985 38.6254C7.59985 39.3887 8.26635 40.0767 9.31985 40.5604C9.25538 40.7767 9.22279 41.0012 9.2231 41.2269C9.2231 43.0437 11.3731 44.5272 14.0391 44.5272C15.5148 44.5789 16.9528 44.0546 18.0488 43.0652C17.3792 43.004 16.7516 42.7123 16.2732 42.2397C15.7948 41.7672 15.4953 41.1433 15.4258 40.4744Z" fill="url(#paint1_linear)"/>
<path d="M26.7241 38.862C26.8607 38.6654 27.0445 38.5063 27.2587 38.3992C27.4728 38.2922 27.7103 38.2406 27.9496 38.2492C28.2337 38.2511 28.5121 38.3291 28.7558 38.475V16.8245L28.1753 15.4807V10.2347C28.1753 9.52521 27.2186 4.74146 26.7671 4.74146C26.3156 4.74146 25.3481 9.50371 25.3481 10.2347V15.4807L24.7676 16.8245V38.475C24.992 38.3522 25.2428 38.2858 25.4986 38.2815C25.7345 38.272 25.9693 38.3199 26.1827 38.421C26.3961 38.5221 26.5819 38.6734 26.7241 38.862Z" fill="url(#paint2_linear)"/>
<path d="M35.6357 34.2932C34.8844 34.2815 34.1431 34.4668 33.4857 34.8307C33.2945 34.9474 33.1114 35.0766 32.9375 35.2177L32.8945 35.25C32.4846 35.6013 32.1796 36.0588 32.013 36.5722C31.8231 36.5862 31.6355 36.6223 31.454 36.6797C31.1122 36.7811 30.7992 36.9615 30.5402 37.2065C30.3497 37.3905 30.1964 37.6095 30.0887 37.8515C30.038 37.9841 29.9985 38.1208 29.9705 38.26C30.3697 38.2766 30.7583 38.3937 31.1003 38.6004C31.4423 38.8071 31.7266 39.0967 31.927 39.4425C32.5267 39.3694 33.131 39.5362 33.6082 39.9067C34.0854 40.2772 34.3969 40.8213 34.4747 41.4205C34.4742 41.7877 34.3491 42.144 34.12 42.431C34.3773 42.5129 34.6454 42.5564 34.9155 42.56H34.9907C35.6142 42.5837 36.2224 42.3635 36.6861 41.9459C37.1498 41.5284 37.4324 40.9466 37.474 40.324V40.152L37.8825 39.937C38.1947 39.7337 38.477 39.4876 38.721 39.206C39.1555 38.7044 39.3958 38.0636 39.3982 37.4C39.3004 36.4936 38.8521 35.6614 38.1492 35.081C37.4462 34.5005 36.5442 34.2178 35.6357 34.2932Z" fill="url(#paint3_linear)"/>
<path d="M21.4997 39.4424C21.7049 39.1012 21.9926 38.817 22.3364 38.6161C22.6801 38.4151 23.0689 38.3037 23.4669 38.2922C23.4403 38.1514 23.397 38.0143 23.3379 37.8837C23.3379 37.8084 23.2627 37.7439 23.2304 37.6794C23.1378 37.5194 23.0259 37.3714 22.8972 37.2387C22.5968 36.9553 22.2253 36.7584 21.8222 36.6689C21.6842 36.637 21.5441 36.6154 21.4029 36.6044C21.1661 35.9377 20.7166 35.3673 20.1237 34.9812C19.4223 34.5282 18.6043 34.2891 17.7694 34.2932C17.1279 34.2739 16.4915 34.4141 15.9174 34.7011C15.3434 34.9882 14.8494 35.4131 14.4799 35.9379C14.1974 36.3731 14.0479 36.8811 14.0499 37.3999C14.0473 37.6854 14.0946 37.9692 14.1897 38.2384C14.252 38.4262 14.335 38.6064 14.4369 38.7759C14.5538 38.9784 14.6946 39.166 14.8562 39.3349C14.9558 39.4434 15.0636 39.544 15.1787 39.6359C15.3648 39.7809 15.5625 39.9104 15.7699 40.0229C15.8322 40.0595 15.8968 40.0918 15.9634 40.1197C15.9584 40.1769 15.9584 40.2345 15.9634 40.2917C15.9695 40.595 16.0397 40.8935 16.1694 41.1677C16.2991 41.4419 16.4853 41.6856 16.7159 41.8827C17.2027 42.2954 17.8192 42.5237 18.4574 42.5277H18.5219C18.7954 42.5233 19.0669 42.4799 19.3282 42.3987C19.0959 42.1127 18.9671 41.7566 18.9627 41.3882C19.0482 40.797 19.3614 40.2627 19.8353 39.8992C20.3093 39.5357 20.9065 39.3718 21.4997 39.4424Z" fill="url(#paint4_linear)"/>
<path d="M33.9482 41.4205C33.9478 41.2073 33.8946 40.9975 33.7933 40.8099C33.692 40.6223 33.5458 40.4628 33.3677 40.3455C33.1726 40.2072 32.9541 40.1052 32.7227 40.0445C32.4687 39.9653 32.204 39.9255 31.938 39.9263H31.5725C31.5097 39.7159 31.4023 39.5215 31.2576 39.3564C31.1129 39.1913 30.9343 39.0593 30.734 38.9695C30.493 38.8468 30.2298 38.7737 29.96 38.7545H29.788C29.4305 38.7578 29.0795 38.8502 28.7667 39.0233C28.7667 39.0233 28.7022 39.0233 28.6807 39.0233C28.4866 38.8193 28.2203 38.6997 27.939 38.69C27.7644 38.6901 27.5933 38.7384 27.4445 38.8298C27.3493 38.8783 27.2656 38.9465 27.1989 39.03C27.1322 39.1134 27.0839 39.21 27.0575 39.3135C26.9871 39.3845 26.9257 39.4639 26.8747 39.55L26.7565 39.6253C26.6543 39.5353 26.5381 39.4627 26.4125 39.4103C26.3942 39.3204 26.3581 39.2352 26.3065 39.1595C26.2548 39.0838 26.1885 39.0192 26.1115 38.9695C25.9471 38.8471 25.7466 38.7828 25.5417 38.7868C25.4038 38.7846 25.2671 38.8124 25.1409 38.868C25.0148 38.9237 24.9021 39.006 24.8107 39.1093C24.6516 39.0049 24.4776 38.9252 24.2947 38.8728C24.0986 38.8193 23.8959 38.794 23.6927 38.7975H23.5315C23.2299 38.8143 22.9359 38.8988 22.6715 39.0448L22.521 39.1308C22.2217 39.3266 22.0039 39.6246 21.9082 39.9693H21.5427C21.2767 39.9693 21.0122 40.0092 20.758 40.0875C20.5307 40.1503 20.3161 40.2521 20.1237 40.3885C19.9737 40.4988 19.8429 40.6332 19.7367 40.7863C19.6053 40.9677 19.5339 41.1857 19.5325 41.4098C19.5323 41.5585 19.5654 41.7054 19.6292 41.8398C19.6897 41.9783 19.7733 42.1055 19.8765 42.216C19.954 42.2898 20.0366 42.3581 20.1237 42.4203C20.318 42.5559 20.5319 42.6611 20.758 42.732C21.0127 42.8067 21.2772 42.8429 21.5427 42.8395H21.962C22.2069 43.0943 22.5033 43.2941 22.8313 43.4257C23.1593 43.5573 23.5116 43.6176 23.8647 43.6028C24.3002 43.6108 24.7314 43.515 25.1225 43.3233C25.2372 43.2716 25.3454 43.2067 25.445 43.1298C25.625 43.0137 25.7734 42.8547 25.8766 42.667C25.9798 42.4794 26.0347 42.2689 26.0362 42.0548C26.0465 41.9727 26.0465 41.8896 26.0362 41.8075C26.0362 41.8075 26.0362 41.7323 26.0362 41.7H26.1115C26.3781 41.6734 26.6298 41.5645 26.8317 41.3883L26.9715 41.4743C27.1605 41.6128 27.3832 41.6982 27.6165 41.7215C27.5734 41.8348 27.5515 41.955 27.552 42.0763C27.5525 42.2822 27.6122 42.4837 27.724 42.6568C27.7826 42.7498 27.8511 42.8363 27.9282 42.9148C28.4216 43.3607 29.0697 43.596 29.7342 43.5705C30.0874 43.5854 30.4396 43.525 30.7676 43.3934C31.0957 43.2618 31.392 43.062 31.637 42.8073H32.024C32.2895 42.8115 32.5541 42.7753 32.8087 42.6998C33.039 42.631 33.2568 42.5257 33.4537 42.388L33.701 42.173C33.7678 42.0989 33.8289 42.0198 33.8837 41.9365C33.9807 41.766 34.0325 41.5736 34.0342 41.3775L33.9482 41.4205Z" fill="url(#paint5_linear)"/>
<defs>
<linearGradient id="paint0_linear" x1="37.5387" y1="28.7454" x2="37.5387" y2="44.5091" gradientUnits="userSpaceOnUse">
<stop stop-color="#D98057"/>
<stop offset="1" stop-color="#BD6F4B"/>
</linearGradient>
<linearGradient id="paint1_linear" x1="15.8988" y1="28.7974" x2="15.8988" y2="44.5307" gradientUnits="userSpaceOnUse">
<stop stop-color="#D98057"/>
<stop offset="1" stop-color="#BD6F4B"/>
</linearGradient>
<linearGradient id="paint2_linear" x1="26.7617" y1="4.74146" x2="26.7617" y2="38.862" gradientUnits="userSpaceOnUse">
<stop stop-color="#D98057"/>
<stop offset="1" stop-color="#BD6F4B"/>
</linearGradient>
<linearGradient id="paint3_linear" x1="34.6843" y1="34.2812" x2="34.6843" y2="42.5617" gradientUnits="userSpaceOnUse">
<stop stop-color="#D98057"/>
<stop offset="1" stop-color="#BD6F4B"/>
</linearGradient>
<linearGradient id="paint4_linear" x1="18.7584" y1="34.2914" x2="18.7584" y2="42.5277" gradientUnits="userSpaceOnUse">
<stop stop-color="#D98057"/>
<stop offset="1" stop-color="#BD6F4B"/>
</linearGradient>
<linearGradient id="paint5_linear" x1="26.7833" y1="38.69" x2="26.7833" y2="43.605" gradientUnits="userSpaceOnUse">
<stop stop-color="#D98057"/>
<stop offset="1" stop-color="#BD6F4B"/>
</linearGradient>
</defs>
</svg>
