<svg width="53" height="53" viewBox="0 0 53 53" fill="none" xmlns="http://www.w3.org/2000/svg">
<path d="M0 26.5C0 11.8645 11.8645 0 26.5 0C41.1355 0 53 11.8645 53 26.5C53 41.1355 41.1355 53 26.5 53C11.8645 53 0 41.1355 0 26.5Z" fill="#F2F2F2"/>
<path d="M19.2407 32.7054L32.1124 17.4334C32.1533 17.3781 32.1717 17.3093 32.1638 17.2409C32.1558 17.1726 32.1221 17.1098 32.0695 17.0654C32.0168 17.0211 31.9493 16.9984 31.8806 17.0021C31.8119 17.0058 31.7471 17.0355 31.6995 17.0852L18.7761 32.4209C18.8926 32.4313 19.0025 32.4798 19.0887 32.5588L19.2407 32.7054Z" fill="url(#paint0_linear)"/>
<path d="M38.4457 22.9283C38.4246 22.8998 38.3982 22.8757 38.3678 22.8575C38.3374 22.8393 38.3038 22.8272 38.2687 22.822C38.2337 22.8168 38.198 22.8186 38.1636 22.8272C38.1292 22.8358 38.0969 22.8511 38.0685 22.8722L21.3801 35.1694L21.4329 35.2448C21.4831 35.3174 21.5149 35.4009 21.5256 35.4884C21.577 35.5294 21.6205 35.5795 21.6539 35.6361L38.3886 23.3055C38.4171 23.2845 38.4413 23.2581 38.4596 23.2278C38.4779 23.1974 38.4901 23.1638 38.4954 23.1287C38.5007 23.0937 38.4991 23.0579 38.4905 23.0235C38.482 22.9891 38.4668 22.9568 38.4457 22.9283Z" fill="url(#paint1_linear)"/>
<path d="M21.2269 36.9888L21.2118 35.9627V35.9239L20.1501 36.2731L20.9908 35.5499L20.9466 35.4874L20.0908 34.2543L19.0658 34.7491L19.8009 33.9892L18.8923 33.1215L18.7144 32.9512L17.9351 33.6755L18.0289 33.3091L18.1679 32.7701L17.0491 32.4662L16.6924 33.7186L16.5156 34.1142L14.6639 35.7913L12.8585 35.8754L11.9832 36.7938L11.7537 37.8436L11.8884 38.0106C11.5241 38.376 11.1404 38.7231 10.8105 39.11C10.9388 39.3073 11.2331 39.7169 11.2331 39.7169L11.1781 39.8732L11.537 40.3485L11.6804 40.3765L11.8959 40.6266L11.8722 42.1356L11.9164 42.1873C11.2503 42.3576 10.8407 42.5807 10.8407 42.8222L10 44.6416C10 45.2721 12.2128 45.7819 14.943 45.7819C17.6732 45.7819 19.886 45.2721 19.886 44.6416L19.0421 42.8222C19.0421 42.6001 18.709 42.391 18.1539 42.2347L18.2552 38.8029L18.2736 38.5873L19.6586 37.6356L20.2838 37.5418L20.9941 37.199L20.0768 37.2346L21.2269 36.9888ZM16.4649 41.7443C16.4596 41.8046 16.4342 41.8614 16.3928 41.9056C16.3513 41.9497 16.2963 41.9787 16.2364 41.9879L15.136 42.1528C15.1227 42.1539 15.1093 42.1539 15.0961 42.1528C15.0599 42.1529 15.0241 42.1457 14.9907 42.1316C14.9574 42.1175 14.9272 42.0969 14.9021 42.0709L14.4709 41.6225C14.4226 41.5724 14.3956 41.5056 14.3955 41.436V40.9898C14.3954 40.9495 14.4044 40.9097 14.4217 40.8733C14.4391 40.837 14.4643 40.8049 14.4957 40.7796C14.5272 40.7546 14.5638 40.7369 14.6029 40.7276C14.642 40.7182 14.6827 40.7176 14.7221 40.7257L15.7773 40.9532L16.1006 40.7171C16.1448 40.6859 16.1974 40.669 16.2515 40.6686C16.3004 40.6658 16.349 40.677 16.3916 40.701C16.4366 40.7264 16.4733 40.7642 16.4973 40.8098C16.5214 40.8555 16.5319 40.9071 16.5275 40.9586L16.4649 41.7443Z" fill="url(#paint2_linear)"/>
<path d="M41.6481 15.9061L41.1954 12.4829L39.3523 11.0957L39.7662 14.5093L41.5112 16.0463L41.688 16.2026L41.6481 15.9061Z" fill="url(#paint3_linear)"/>
<path d="M39.5135 17.385L39.4553 16.8762L37.9161 17.9961L37.9075 18.0026L38.0077 19.7627L39.2106 18.9888L39.6256 18.7226L39.6644 18.6978L39.5135 17.385Z" fill="url(#paint4_linear)"/>
<path d="M41.0473 16.3568L39.4941 14.9879L36.6648 17.0358L37.4699 17.6534L39.5114 16.1682C39.5179 16.1682 39.5254 16.1682 39.5319 16.1595C39.5483 16.151 39.5657 16.1445 39.5836 16.1401C39.6133 16.1291 39.6446 16.1233 39.6763 16.1229C39.6956 16.124 39.7148 16.1273 39.7334 16.1326C39.7635 16.14 39.792 16.1527 39.8175 16.1703C39.8272 16.1768 39.8412 16.1768 39.8498 16.1854L40.4707 16.7383L41.513 17.6771L41.555 17.5457L41.7285 16.9938L41.7382 16.9625L41.0473 16.3568Z" fill="url(#paint5_linear)"/>
<path d="M41.3956 18.3012V18.3001L40.0203 17.0616L40.2057 18.6849L40.2337 18.7043L41.6618 19.7293L41.3956 18.3012Z" fill="url(#paint6_linear)"/>
<path d="M42.6782 14.7582L42.1221 15.3779L42.3139 16.846C42.3129 16.8643 42.3096 16.8824 42.3042 16.8999C42.3069 16.9206 42.3069 16.9416 42.3042 16.9624L42.1781 17.3623L44.4103 19.1623L45.7383 17.4991L42.6782 14.7582Z" fill="url(#paint7_linear)"/>
<path d="M46.1426 17.858L44.8308 19.4996L47.782 21.8795L48.9999 20.4168L46.1426 17.858Z" fill="url(#paint8_linear)"/>
<path d="M43.1523 21.6004L46.1908 23.7885L47.4357 22.2935L44.4943 19.9211L43.1523 21.6004Z" fill="url(#paint9_linear)"/>
<path d="M39.943 19.1602L38.2454 20.2499L39.9128 21.4366L41.48 20.3943L41.5748 20.3307H41.5759L39.943 19.1602Z" fill="url(#paint10_linear)"/>
<path d="M42.0047 17.9131L41.9207 18.1782L42.3141 20.2951C42.3141 20.3027 42.3141 20.3102 42.3141 20.3178C42.3183 20.3541 42.3146 20.3908 42.3033 20.4256C42.3033 20.4385 42.2979 20.4536 42.2925 20.4654C42.2707 20.5093 42.2376 20.5465 42.1966 20.5732L41.9465 20.7263L42.715 21.2803L44.0742 19.5784L42.0047 17.9131Z" fill="url(#paint11_linear)"/>
<path d="M39.2239 14.5178L38.8563 11.4836L37.2115 13.469L36.8644 13.8905L36.5066 14.3205L36.4883 16.5L39.2239 14.5178Z" fill="url(#paint12_linear)"/>
<path d="M36.7726 13.1157L35.8748 12.3914L36.7726 13.1157Z" fill="url(#paint13_linear)"/>
<path d="M35.5372 12.8105L32.3522 10.243L30.397 12.6898L34.7127 15.6431L36.448 13.5467L35.5372 12.8105Z" fill="url(#paint14_linear)"/>
<path d="M34.5782 7.45691L32.6887 9.82171L35.8748 12.3913L36.7727 13.1156L36.7921 13.1307L36.9592 12.9292L38.4768 11.0968L34.5782 7.45691Z" fill="url(#paint15_linear)"/>
<path d="M29.8068 3L27.6123 5.72804L32.2697 9.48326L34.184 7.08828L29.8068 3Z" fill="url(#paint16_linear)"/>
<path d="M27.2747 6.14844L24.9907 8.98965L29.951 12.3849L31.9332 9.90474L27.2747 6.14844Z" fill="url(#paint17_linear)"/>
<defs>
<linearGradient id="paint0_linear" x1="25.4709" y1="17.0017" x2="25.4709" y2="32.7054" gradientUnits="userSpaceOnUse">
<stop stop-color="#F0BE73"/>
<stop offset="1" stop-color="#ECA944"/>
</linearGradient>
<linearGradient id="paint1_linear" x1="29.9393" y1="22.8191" x2="29.9393" y2="35.6361" gradientUnits="userSpaceOnUse">
<stop stop-color="#F0BE73"/>
<stop offset="1" stop-color="#ECA944"/>
</linearGradient>
<linearGradient id="paint2_linear" x1="15.6134" y1="32.4662" x2="15.6134" y2="45.7819" gradientUnits="userSpaceOnUse">
<stop stop-color="#F0BE73"/>
<stop offset="1" stop-color="#ECA944"/>
</linearGradient>
<linearGradient id="paint3_linear" x1="40.5201" y1="11.0957" x2="40.5201" y2="16.2026" gradientUnits="userSpaceOnUse">
<stop stop-color="#F0BE73"/>
<stop offset="1" stop-color="#ECA944"/>
</linearGradient>
<linearGradient id="paint4_linear" x1="38.7859" y1="16.8762" x2="38.7859" y2="19.7627" gradientUnits="userSpaceOnUse">
<stop stop-color="#F0BE73"/>
<stop offset="1" stop-color="#ECA944"/>
</linearGradient>
<linearGradient id="paint5_linear" x1="39.2015" y1="14.9879" x2="39.2015" y2="17.6771" gradientUnits="userSpaceOnUse">
<stop stop-color="#F0BE73"/>
<stop offset="1" stop-color="#ECA944"/>
</linearGradient>
<linearGradient id="paint6_linear" x1="40.841" y1="17.0616" x2="40.841" y2="19.7293" gradientUnits="userSpaceOnUse">
<stop stop-color="#F0BE73"/>
<stop offset="1" stop-color="#ECA944"/>
</linearGradient>
<linearGradient id="paint7_linear" x1="43.9302" y1="14.7582" x2="43.9302" y2="19.1623" gradientUnits="userSpaceOnUse">
<stop stop-color="#F0BE73"/>
<stop offset="1" stop-color="#ECA944"/>
</linearGradient>
<linearGradient id="paint8_linear" x1="46.9154" y1="17.858" x2="46.9154" y2="21.8795" gradientUnits="userSpaceOnUse">
<stop stop-color="#F0BE73"/>
<stop offset="1" stop-color="#ECA944"/>
</linearGradient>
<linearGradient id="paint9_linear" x1="45.294" y1="19.9211" x2="45.294" y2="23.7885" gradientUnits="userSpaceOnUse">
<stop stop-color="#F0BE73"/>
<stop offset="1" stop-color="#ECA944"/>
</linearGradient>
<linearGradient id="paint10_linear" x1="39.9106" y1="19.1602" x2="39.9106" y2="21.4366" gradientUnits="userSpaceOnUse">
<stop stop-color="#F0BE73"/>
<stop offset="1" stop-color="#ECA944"/>
</linearGradient>
<linearGradient id="paint11_linear" x1="42.9974" y1="17.9131" x2="42.9974" y2="21.2803" gradientUnits="userSpaceOnUse">
<stop stop-color="#F0BE73"/>
<stop offset="1" stop-color="#ECA944"/>
</linearGradient>
<linearGradient id="paint12_linear" x1="37.8561" y1="11.4836" x2="37.8561" y2="16.5" gradientUnits="userSpaceOnUse">
<stop stop-color="#F0BE73"/>
<stop offset="1" stop-color="#ECA944"/>
</linearGradient>
<linearGradient id="paint13_linear" x1="36.3237" y1="12.3914" x2="36.3237" y2="13.1157" gradientUnits="userSpaceOnUse">
<stop stop-color="#F0BE73"/>
<stop offset="1" stop-color="#ECA944"/>
</linearGradient>
<linearGradient id="paint14_linear" x1="33.4225" y1="10.243" x2="33.4225" y2="15.6431" gradientUnits="userSpaceOnUse">
<stop stop-color="#F0BE73"/>
<stop offset="1" stop-color="#ECA944"/>
</linearGradient>
<linearGradient id="paint15_linear" x1="35.5827" y1="7.45691" x2="35.5827" y2="13.1307" gradientUnits="userSpaceOnUse">
<stop stop-color="#F0BE73"/>
<stop offset="1" stop-color="#ECA944"/>
</linearGradient>
<linearGradient id="paint16_linear" x1="30.8981" y1="3" x2="30.8981" y2="9.48326" gradientUnits="userSpaceOnUse">
<stop stop-color="#F0BE73"/>
<stop offset="1" stop-color="#ECA944"/>
</linearGradient>
<linearGradient id="paint17_linear" x1="28.4619" y1="6.14844" x2="28.4619" y2="12.3849" gradientUnits="userSpaceOnUse">
<stop stop-color="#F0BE73"/>
<stop offset="1" stop-color="#ECA944"/>
</linearGradient>
</defs>
</svg>
