<?xml version="1.0" encoding="utf-8"?>
<!-- Generator: Adobe Illustrator 24.3.0, SVG Export Plug-In . SVG Version: 6.00 Build 0)  -->
<svg version="1.1" id="Layer_1" xmlns="http://www.w3.org/2000/svg" xmlns:xlink="http://www.w3.org/1999/xlink" x="0px" y="0px"
	 viewBox="0 0 54 54" style="enable-background:new 0 0 54 54;" xml:space="preserve">
<style type="text/css">
	.st0{fill:#F2F2F2;}
	.st1{fill:#D66E42;}
	.st2{fill:#5DB6D0;}
</style>
<circle class="st0" cx="27" cy="27" r="27"/>
<g>
	<path class="st2" d="M44.09,18.29c-0.08-0.3-0.23-0.57-0.45-0.77l0.2-0.35c0.08-0.13,0.03-0.3-0.1-0.37l0,0l-0.29-0.17l0.18-0.32
		c0.17-0.3,0.08-0.68-0.22-0.86c-0.3-0.18-0.68-0.08-0.86,0.22l-0.19,0.33l-0.29-0.17l0,0c-0.13-0.08-0.3-0.03-0.37,0.1l-5.02,8.68
		l0,0c0.2,0.11,0.27,0.37,0.15,0.56l-4.35,7.76c-0.1,0.18-0.18,0.37-0.23,0.57l-0.54,2.15l1.59-1.54c0.15-0.14,0.27-0.3,0.38-0.48
		l4.56-7.64c0.12-0.2,0.37-0.26,0.57-0.15l0,0l4.54-7.84c0.28,0.35,0.33,0.84,0.1,1.25l-2.75,4.75c-0.15,0.26-0.4,0.44-0.67,0.51
		c-0.03,0.01-0.06,0.02-0.1,0.02l-0.32,0.55c0.18,0.01,0.37,0,0.55-0.05c0.42-0.11,0.78-0.38,1-0.76l2.74-4.74
		C44.13,19.16,44.2,18.71,44.09,18.29z"/>
	<path class="st2" d="M38.16,38.42V27.33l-1.22,2.05v9.04H21.79v0.61c0,0.63-0.25,1.23-0.69,1.68c-0.44,0.44-1.03,0.69-1.66,0.69
		c-1.31,0.01-2.38-1.09-2.38-2.4v-26.1c0-0.44-0.09-0.87-0.26-1.28c-0.15-0.37-0.37-0.79-0.64-1.03h19.02c0.02,0,0.04,0,0.06,0
		c0.95,0.03,1.7,0.82,1.7,1.78v10.62l1.22-2.11v-8.94c0-0.86-0.46-1.66-1.21-2.09c0,0-0.01-0.01-0.01-0.01
		c-0.53-0.29-1.13-0.46-1.77-0.46v0H13.48c-0.01,0-0.02,0-0.03,0c-1.98,0-3.6,1.61-3.6,3.6v0.61h5.97v25.46
		c0,1.98,1.61,3.59,3.6,3.59v0h21.11v0c1.98,0,3.59-1.61,3.59-3.59v-0.61H38.16z M11.16,12.34c0.27-1.01,1.19-1.76,2.29-1.76h0v0
		h0.06c0.61,0.02,1.18,0.26,1.62,0.69c0.3,0.3,0.51,0.67,0.62,1.06H11.16z M40.53,41.4L40.53,41.4l-18.41,0c0,0,0,0,0,0
		c0.44-0.5,0.73-1.11,0.84-1.76h19.86C42.56,40.65,41.63,41.4,40.53,41.4z"/>
	<g>
		<path class="st2" d="M19.61,14.8v-0.52c0-0.19,0.16-0.35,0.35-0.35h14.06c0.19,0,0.35,0.16,0.35,0.35v0.52
			c0,0.19-0.16,0.35-0.35,0.35H19.96C19.77,15.15,19.61,14.99,19.61,14.8z"/>
		<path class="st2" d="M19.61,18.51v-0.52c0-0.19,0.16-0.35,0.35-0.35h14.06c0.19,0,0.35,0.16,0.35,0.35v0.52
			c0,0.19-0.16,0.35-0.35,0.35H19.96C19.77,18.86,19.61,18.71,19.61,18.51z"/>
		<path class="st2" d="M19.61,22.23v-0.52c0-0.19,0.16-0.35,0.35-0.35h14.06c0.19,0,0.35,0.16,0.35,0.35v0.52
			c0,0.19-0.16,0.35-0.35,0.35H19.96C19.77,22.58,19.61,22.42,19.61,22.23z"/>
		<path class="st2" d="M19.61,25.94v-0.52c0-0.19,0.16-0.35,0.35-0.35h14.06c0.19,0,0.35,0.16,0.35,0.35v0.52
			c0,0.19-0.16,0.35-0.35,0.35H19.96C19.77,26.29,19.61,26.13,19.61,25.94z"/>
		<path class="st2" d="M19.61,29.65v-0.52c0-0.19,0.16-0.35,0.35-0.35h6.68c0.19,0,0.35,0.16,0.35,0.35v0.52
			c0,0.19-0.16,0.35-0.35,0.35h-6.68C19.77,30.01,19.61,29.85,19.61,29.65z"/>
	</g>
	<path class="st2" d="M31.54,35.29c-0.89-0.27-1.82-0.29-2.73-0.26c-0.47,0.02-0.93,0.05-1.4,0.07c-0.45,0.02-0.9,0-1.35,0
		c-0.21,0-0.42,0.06-0.63,0.12c-0.13,0.04-0.3,0.09-0.44,0.09c-0.07-0.08-0.16-0.16-0.23-0.23c-0.06-0.06-0.12-0.12-0.18-0.18
		c-0.02-0.03-0.05-0.05-0.07-0.08c0-0.01-0.01-0.01-0.01-0.02c-0.08-0.19-0.36-0.16-0.45,0c-0.09,0.16-0.19,0.32-0.28,0.48
		c-0.02-0.04-0.03-0.08-0.05-0.12c-0.06-0.16-0.23-0.26-0.38-0.16c-0.16,0.1-0.3,0.22-0.43,0.35c0.02-0.34,0.04-0.68,0.06-1.02
		c0.02-0.38,0.05-0.77,0.07-1.15c0.01-0.29-0.01-0.59-0.12-0.86c-0.11-0.27-0.34-0.48-0.63-0.53c-0.32-0.05-0.65,0.08-0.89,0.31
		c-0.24,0.23-0.37,0.55-0.48,0.86c-0.13,0.36-0.26,0.72-0.38,1.09c-0.3,0.85-0.6,1.69-0.9,2.54c-0.05,0.14,0.05,0.3,0.18,0.33
		c0.15,0.04,0.27-0.05,0.32-0.19c0.24-0.68,0.48-1.35,0.72-2.03c0.12-0.34,0.24-0.68,0.36-1.01c0.1-0.29,0.19-0.6,0.33-0.88
		c0.11-0.22,0.27-0.43,0.52-0.48c0.19-0.04,0.32,0.07,0.39,0.24c0.08,0.21,0.08,0.46,0.06,0.69c-0.02,0.35-0.04,0.7-0.06,1.05
		c-0.05,0.8-0.1,1.6-0.14,2.4c-0.01,0.15,0.13,0.27,0.26,0.27c0.15,0,0.25-0.12,0.26-0.27c0.04-0.4,0.24-0.78,0.53-1.05
		c0.04,0.1,0.08,0.2,0.11,0.3c0.08,0.21,0.35,0.28,0.48,0.06c0.12-0.21,0.25-0.42,0.37-0.63c0.01,0.01,0.02,0.02,0.04,0.03
		c0.06,0.06,0.12,0.12,0.18,0.17c0.03,0.03,0.05,0.06,0.08,0.08c0,0,0,0.01,0.01,0.02c0.15,0.23,0.53,0.15,0.75,0.1
		c0.21-0.05,0.43-0.14,0.65-0.15c0.28-0.01,0.56,0.02,0.84,0.01c0.29,0,0.58-0.02,0.87-0.03c0.59-0.03,1.17-0.07,1.76-0.07
		c0.65,0,1.29,0.06,1.92,0.25C31.72,35.91,31.86,35.39,31.54,35.29z"/>
</g>
</svg>
