<svg xmlns="http://www.w3.org/2000/svg" width="15" height="15" viewBox="0 0 15 15">><path d="M7.49,0V1.67H1.68V13.32H13.32V7.52H15v5.72a1.76,1.76,0,0,1-.42,1.19,1.64,1.64,0,0,1-1.13.56H1.74a1.67,1.67,0,0,1-1.16-.41A1.61,1.61,0,0,1,0,13.48v-.27C0,9.4,0,5.6,0,1.8A1.83,1.83,0,0,1,.58.4a1.53,1.53,0,0,1,1-.39h6Z" transform="translate(0 0)"/><path d="M9.17,1.67V0H15V5.84H13.34v-3h0c-.05.05-.11.1-.16.16l-.45.46-1.3,1.29-.84.84-.89.9-.88.87-.89.9c-.28.29-.57.57-.86.86L6.16,10l-.88.87a1.83,1.83,0,0,1-.13.16L4,9.86l0,0L5.36,8.47l.95-1,.75-.75,1-1L8.87,5l1-.94.85-.86.92-.91.56-.58Z" transform="translate(0 0)"/></svg>
